<?xml version="1.0" encoding="UTF-8"?> <svg xmlns="http://www.w3.org/2000/svg" xmlns:xlink="http://www.w3.org/1999/xlink" version="1.1" id="Layer_1" x="0px" y="0px" viewBox="0 0 117 42.4" style="enable-background:new 0 0 117 42.4;" xml:space="preserve"> <style type="text/css"> .st0{clip-path:url(#SVGID_00000175294431268071465790000010383606218903554487_);fill:#231F20;} .st1{clip-path:url(#SVGID_00000175294431268071465790000010383606218903554487_);fill-rule:evenodd;clip-rule:evenodd;fill:#231F20;} .st2{clip-path:url(#SVGID_00000175294431268071465790000010383606218903554487_);fill:#0099CD;} .st3{clip-path:url(#SVGID_00000175294431268071465790000010383606218903554487_);fill:none;stroke:#231F20;stroke-width:0.214;stroke-miterlimit:3.864;} .st4{clip-path:url(#SVGID_00000175294431268071465790000010383606218903554487_);fill:none;stroke:#231F20;stroke-width:1.246;stroke-miterlimit:3.864;} </style> <g> <defs> <rect id="SVGID_1_" width="117" height="42.4"></rect> </defs> <clipPath id="SVGID_00000099654478046206577900000017706131843594991777_"> <use xlink:href="#SVGID_1_" style="overflow:visible;"></use> </clipPath> <path style="clip-path:url(#SVGID_00000099654478046206577900000017706131843594991777_);fill:#231F20;" d="M4.4,42.3 c0.8,0,1.2-0.3,1.6-0.7L5.5,41c-0.3,0.3-0.6,0.5-1,0.5c-0.7,0-1.1-0.6-1.1-1.2v0c0-0.7,0.5-1.2,1.1-1.2c0.4,0,0.7,0.2,1,0.4L6,38.8 c-0.4-0.4-0.8-0.6-1.5-0.6c-1.2,0-2,0.9-2,2v0C2.4,41.4,3.3,42.3,4.4,42.3"></path> <path style="clip-path:url(#SVGID_00000099654478046206577900000017706131843594991777_);fill-rule:evenodd;clip-rule:evenodd;fill:#231F20;" d=" M7.3,42.2h0.9V41h0.7l0.8,1.3h1l-1-1.4c0.5-0.2,0.8-0.6,0.8-1.2v0c0-0.4-0.1-0.7-0.3-0.9c-0.3-0.3-0.6-0.4-1.1-0.4H7.3V42.2z M8.1,40.2v-1.1H9c0.4,0,0.7,0.2,0.7,0.6v0c0,0.3-0.2,0.6-0.7,0.6H8.1z"></path> <polygon style="clip-path:url(#SVGID_00000099654478046206577900000017706131843594991777_);fill:#231F20;" points="11.9,42.2 14.8,42.2 14.8,41.4 12.7,41.4 12.7,40.6 14.6,40.6 14.6,39.9 12.7,39.9 12.7,39.1 14.8,39.1 14.8,38.3 11.9,38.3 "></polygon> <path style="clip-path:url(#SVGID_00000099654478046206577900000017706131843594991777_);fill-rule:evenodd;clip-rule:evenodd;fill:#231F20;" d=" M16.1,42.2h1.5c1.2,0,2.1-0.9,2.1-2v0c0-1.1-0.9-2-2.1-2h-1.5V42.2z M17.7,39.1c0.7,0,1.2,0.5,1.2,1.2v0c0,0.7-0.5,1.2-1.2,1.2H17 v-2.4H17.7z"></path> <rect x="21.1" y="38.3" style="clip-path:url(#SVGID_00000099654478046206577900000017706131843594991777_);fill:#231F20;" width="0.9" height="3.9"></rect> <polygon style="clip-path:url(#SVGID_00000099654478046206577900000017706131843594991777_);fill:#231F20;" points="24.4,42.2 25.2,42.2 25.2,39.1 26.4,39.1 26.4,38.3 23.2,38.3 23.2,39.1 24.4,39.1 "></polygon> <path style="clip-path:url(#SVGID_00000099654478046206577900000017706131843594991777_);fill:#231F20;" d="M31.5,42.3 c1.1,0,1.7-0.6,1.7-1.8v-2.2h-0.9v2.2c0,0.6-0.3,0.9-0.8,0.9c-0.5,0-0.8-0.3-0.8-1v-2.2h-0.9v2.2C29.8,41.7,30.4,42.3,31.5,42.3"></path> <polygon style="clip-path:url(#SVGID_00000099654478046206577900000017706131843594991777_);fill:#231F20;" points="34.6,42.2 35.4,42.2 35.4,39.7 37.4,42.2 38.1,42.2 38.1,38.3 37.2,38.3 37.2,40.7 35.4,38.3 34.6,38.3 "></polygon> <rect x="39.6" y="38.3" style="clip-path:url(#SVGID_00000099654478046206577900000017706131843594991777_);fill:#231F20;" width="0.9" height="3.9"></rect> <path style="clip-path:url(#SVGID_00000099654478046206577900000017706131843594991777_);fill-rule:evenodd;clip-rule:evenodd;fill:#231F20;" d=" M43.9,42.3c1.2,0,2.1-0.9,2.1-2v0c0-1.1-0.9-2-2.1-2s-2.1,0.9-2.1,2v0C41.8,41.4,42.7,42.3,43.9,42.3 M43.9,41.5 c-0.7,0-1.2-0.6-1.2-1.2v0c0-0.7,0.5-1.2,1.2-1.2s1.2,0.6,1.2,1.2v0C45.1,40.9,44.6,41.5,43.9,41.5"></path> <polygon style="clip-path:url(#SVGID_00000099654478046206577900000017706131843594991777_);fill:#231F20;" points="47.3,42.2 48.1,42.2 48.1,39.7 50,42.2 50.7,42.2 50.7,38.3 49.9,38.3 49.9,40.7 48.1,38.3 47.3,38.3 "></polygon> <path style="clip-path:url(#SVGID_00000099654478046206577900000017706131843594991777_);fill:#231F20;" d="M6.9,16.3H0.1V20h2.5 v10.6H0v3.7h9.5v-3.7H7v-8.2c0.8-1.2,2.2-2.8,4.2-2.8c1.6,0,2.7,1,2.7,2.5v8.5h-2.4v3.7h9.3v-3.7h-2.4v-8.2 c0.8-1.2,2.2-2.8,4.2-2.8c1.6,0,2.7,1,2.7,2.5v8.5h-2.4v3.7h9.5v-3.7h-2.6v-7.7c0-5-1.9-6.9-5.8-6.9c-2.5,0-4.4,1.1-6.3,3 c-0.6-2.2-2.9-3-4.9-3c-2.5,0-4.4,0.9-6,2.7V16.3z"></path> <path style="clip-path:url(#SVGID_00000099654478046206577900000017706131843594991777_);fill-rule:evenodd;clip-rule:evenodd;fill:#231F20;" d=" M50.4,20h1.9v-3.7h-5.6V19h-0.1c-1.5-1.9-3.6-3.1-5.9-3.1c-4.8,0-8.9,3.7-8.9,9.4s4.2,9.4,8.9,9.4c2.4,0,4.6-1.2,5.9-3h0.1v2.6h6.5 v-3.7h-2.8V20z M41.5,30.9c-3.4,0-5.1-2.7-5.1-5.8c0-2.9,1.7-5.5,5.1-5.5c3.5,0,4.9,2.6,4.9,5.5C46.4,28.2,44.9,30.9,41.5,30.9"></path> <path style="clip-path:url(#SVGID_00000099654478046206577900000017706131843594991777_);fill:#231F20;" d="M86.1,17.2 c-1.2-0.9-2.8-1.4-4.3-1.4c-3.7,0-6.7,1.9-6.7,5.9c0,7.6,11.8,4,11.8,7.8c0,1.6-2,1.8-3.3,1.8c-1.1,0-2.1-0.3-2.8-0.8 C80,30,79.4,29.2,79,28.1h-3.9v6.1h3.9v-1.2c1.2,1.2,3.3,1.6,4.9,1.6c3.7,0,6.9-1.5,6.9-5.7c-0.1-8-11.8-4.5-11.8-7.8 c0-1.7,1.6-2,2.9-2c1,0,1.9,0.2,2.5,0.7c0.7,0.5,1.2,1.2,1.4,2.2h3.8v-5.8h-3.6V17.2z"></path> <path style="clip-path:url(#SVGID_00000099654478046206577900000017706131843594991777_);fill-rule:evenodd;clip-rule:evenodd;fill:#231F20;" d=" M59.4,16.3h-5.7V20h1.6v18.7h-1.6v3.7h7.9v-3.7h-1.9v-6.3h0.1l0,0c1.1,1.4,3.1,2.3,5.9,2.3c4.2,0,8.3-3.7,8.3-9.4s-4.2-9.4-8.3-9.4 c-2.7,0-4.7,1.2-6.3,2.8V16.3z M69.6,25.3c0,2.9-1.7,5.6-5.2,5.6c-3.5,0-5.2-2.7-5.2-5.6s1.7-5.6,5.2-5.6 C67.9,19.6,69.6,22.3,69.6,25.3"></path> <path style="clip-path:url(#SVGID_00000099654478046206577900000017706131843594991777_);fill:#007FAD;" d="M99.7,10.4 c0-3.9,3.1-7,7-7c3.9,0,7,3.1,7,7s-3.1,7-7,7C102.9,17.4,99.7,14.3,99.7,10.4"></path> <circle style="clip-path:url(#SVGID_00000099654478046206577900000017706131843594991777_);fill:none;stroke:#231F20;stroke-width:0.214;stroke-miterlimit:3.864;" cx="106.7" cy="10.3" r="9.7"></circle> <circle style="clip-path:url(#SVGID_00000099654478046206577900000017706131843594991777_);fill:none;stroke:#231F20;stroke-width:1.246;stroke-miterlimit:3.864;" cx="106.7" cy="10.3" r="9.7"></circle> </g> </svg> 