<svg width="320" height="320" viewBox="0 0 320 320" fill="none" xmlns="http://www.w3.org/2000/svg">
<g clip-path="url(#clip0_9_39)">
<path d="M-0.00976562 38.4575C-0.00976562 32.7536 3.32409 27.5761 8.51673 25.2158L43.4259 9.34802C53.0564 4.97052 63.9902 12.011 63.9902 22.5897V281.543C63.9902 287.247 60.6564 292.424 55.4637 294.785L20.5546 310.653C10.9241 315.03 -0.00976562 307.99 -0.00976562 297.411V38.4575Z" fill="url(#paint0_linear_9_39)"/>
<path d="M-0.00976562 38.4575C-0.00976562 32.7536 3.32409 27.5761 8.51673 25.2158L43.4259 9.34802C53.0564 4.97052 63.9902 12.011 63.9902 22.5897V281.543C63.9902 287.247 60.6564 292.424 55.4637 294.785L20.5546 310.653C10.9241 315.03 -0.00976562 307.99 -0.00976562 297.411V38.4575Z" fill="url(#paint1_linear_9_39)"/>
<path d="M4.01746 47.2345C-2.79943 39.9565 -0.437807 28.1331 8.65189 24.0324L44.5834 7.82241C50.2534 5.26447 56.9224 6.59511 61.1766 11.1332L310.01 276.573C316.819 283.836 314.483 295.638 305.421 299.76L269.433 316.133C263.753 318.716 257.059 317.39 252.794 312.836L4.01746 47.2345Z" fill="url(#paint2_linear_9_39)"/>
<path d="M4.01862 47.2346C-2.79874 39.9568 -0.437365 28.133 8.65249 24.0321L44.5837 7.82176C50.2535 5.26383 56.9224 6.59424 61.1766 11.132L310.395 276.959C317.204 284.222 314.869 296.025 305.807 300.147L269.818 316.519C264.139 319.103 257.445 317.777 253.18 313.223L4.01862 47.2346Z" fill="url(#paint3_linear_9_39)"/>
<path d="M250.84 45.1737C250.84 39.3197 254.349 34.0361 259.745 31.7662L299.811 14.9125C309.398 10.8798 319.996 17.9196 319.996 28.32V287.669C319.996 293.523 316.487 298.806 311.091 301.076L271.025 317.93C261.438 321.963 250.84 314.923 250.84 304.522V45.1737Z" fill="url(#paint4_linear_9_39)"/>
</g>
<defs>
<linearGradient id="paint0_linear_9_39" x1="31.9902" y1="0.000610352" x2="31.9902" y2="320" gradientUnits="userSpaceOnUse">
<stop stop-color="#FDFFB6"/>
<stop offset="0.526042" stop-color="#FFD6A5"/>
<stop offset="1" stop-color="#FFADAD"/>
</linearGradient>
<linearGradient id="paint1_linear_9_39" x1="95.9902" y1="29.0915" x2="28.5391" y2="94.043" gradientUnits="userSpaceOnUse">
<stop offset="0.588542"/>
<stop offset="1" stop-opacity="0.16"/>
</linearGradient>
<linearGradient id="paint2_linear_9_39" x1="30.4352" y1="17.6467" x2="251.217" y2="329.977" gradientUnits="userSpaceOnUse">
<stop stop-color="#CAFFBF"/>
<stop offset="0.494792" stop-color="#9BF6FF"/>
<stop offset="1" stop-color="#A0C4FF"/>
</linearGradient>
<linearGradient id="paint3_linear_9_39" x1="239.905" y1="265.363" x2="310.865" y2="265.363" gradientUnits="userSpaceOnUse">
<stop stop-opacity="0.16"/>
<stop offset="0.546875"/>
</linearGradient>
<linearGradient id="paint4_linear_9_39" x1="285.418" y1="6.42151" x2="285.418" y2="326.421" gradientUnits="userSpaceOnUse">
<stop stop-color="#FFC6FF"/>
<stop offset="1" stop-color="#BDB2FF"/>
</linearGradient>
<clipPath id="clip0_9_39">
<rect width="320" height="320" fill="white"/>
</clipPath>
</defs>
</svg>
