<svg width="1025" height="1024" viewBox="0 0 1025 1024" fill="none" xmlns="http://www.w3.org/2000/svg">
<g filter="url(#filter0_d_6_130)">
<path d="M277.693 62.9981C263.422 62.9935 248.974 66.7661 235.949 74.6854C211.481 89.5615 198.114 115.372 198.343 141.705C198.341 141.933 198.34 142.161 198.34 142.39V881.61C198.34 925.457 233.885 961.002 277.731 961.002C321.578 961.002 357.123 925.457 357.123 881.61V414.951L678.144 924.072C693.312 948.127 719.642 961.255 746.494 960.998C746.752 961.001 747.01 961.002 747.269 961.002C791.116 961.002 826.66 925.457 826.66 881.61V142.39C826.66 98.5429 791.116 62.9981 747.269 62.9981C703.422 62.9981 667.878 98.5428 667.878 142.39V611.608L345.242 99.9281C332.82 80.2264 312.909 67.8546 291.357 64.163C286.93 63.3972 282.377 62.9981 277.731 62.9981C277.719 62.9981 277.706 62.9981 277.693 62.9981Z" fill="url(#paint0_linear_6_130)"/>
</g>
<defs>
<filter id="filter0_d_6_130" x="174.34" y="38.9981" width="692.32" height="962.004" filterUnits="userSpaceOnUse" color-interpolation-filters="sRGB">
<feFlood flood-opacity="0" result="BackgroundImageFix"/>
<feColorMatrix in="SourceAlpha" type="matrix" values="0 0 0 0 0 0 0 0 0 0 0 0 0 0 0 0 0 0 127 0" result="hardAlpha"/>
<feOffset dx="8" dy="8"/>
<feGaussianBlur stdDeviation="16"/>
<feComposite in2="hardAlpha" operator="out"/>
<feColorMatrix type="matrix" values="0 0 0 0 0 0 0 0 0 0 0 0 0 0 0 0 0 0 0.75 0"/>
<feBlend mode="normal" in2="BackgroundImageFix" result="effect1_dropShadow_6_130"/>
<feBlend mode="normal" in="SourceGraphic" in2="effect1_dropShadow_6_130" result="shape"/>
</filter>
<linearGradient id="paint0_linear_6_130" x1="198.34" y1="62.9981" x2="1041.97" y2="653.276" gradientUnits="userSpaceOnUse">
<stop stop-color="#FFADAD"/>
<stop offset="0.142857" stop-color="#FFBB72"/>
<stop offset="0.285714" stop-color="#FFF744"/>
<stop offset="0.428571" stop-color="#8DFD78"/>
<stop offset="0.571429" stop-color="#62EEFE"/>
<stop offset="0.714286" stop-color="#A0C4FF"/>
<stop offset="0.857143" stop-color="#ABBDFF"/>
<stop offset="1" stop-color="#FEA9FA"/>
</linearGradient>
</defs>
</svg>
