<?xml version="1.0" standalone="no"?>
<!DOCTYPE svg PUBLIC "-//W3C//DTD SVG 20010904//EN"
 "http://www.w3.org/TR/2001/REC-SVG-20010904/DTD/svg10.dtd">
<svg version="1.0" xmlns="http://www.w3.org/2000/svg"
 width="576.000000pt" height="576.000000pt" viewBox="0 0 576.000000 576.000000"
 preserveAspectRatio="xMidYMid meet">
<metadata>
Created by potrace 1.14, written by Peter Selinger 2001-2017
</metadata>
<g transform="translate(0.000000,576.000000) scale(0.100000,-0.100000)"
fill="#000000" stroke="none">
<path d="M1075 5744 c-461 -80 -837 -393 -997 -827 -15 -43 -38 -120 -51 -170
l-22 -92 0 -1750 c0 -962 4 -1775 8 -1806 4 -31 12 -71 17 -88 5 -17 9 -34 9
-36 1 -13 13 -62 18 -75 3 -8 7 -19 8 -25 2 -5 12 -34 24 -62 165 -416 533
-716 971 -793 99 -17 196 -18 1825 -18 1874 0 1782 -3 1975 58 399 125 701
422 835 824 67 199 64 109 62 2026 -2 954 -6 1751 -10 1770 -20 90 -49 195
-71 252 -158 420 -532 730 -976 808 -99 17 -196 18 -1825 18 -1426 0 -1734 -2
-1800 -14z"/>
</g>
</svg>
